<?xml version="1.0" encoding="utf-8"?>
<!-- Generator: Adobe Illustrator 25.2.1, SVG Export Plug-In . SVG Version: 6.00 Build 0)  -->
<svg version="1.1" id="Layer_1" xmlns="http://www.w3.org/2000/svg" xmlns:xlink="http://www.w3.org/1999/xlink" x="0px" y="0px"
	 viewBox="0 0 1153 265" style="enable-background:new 0 0 1153 265;" xml:space="preserve">
<style type="text/css">
	.st0{fill-rule:evenodd;clip-rule:evenodd;fill:#4F1A3B;}
	.st1{fill-rule:evenodd;clip-rule:evenodd;fill:#EEA26B;}
</style>
<g>
	<path class="st0" d="M463,100.6h-18.1V90H463c0.2-9.7,1.4-35.1,24.6-57c15-14.2,33-21,40.5-23.1c0.1,0,1.4-0.4,1.5-0.4
		c0,0,1.5,0.3,2.5,0.5c2.5,0.6,29.3,7.1,47.5,29.8c14,17.5,16.8,36.9,16.9,50.2h18.1v10.6h-18.1v69.6h18.1v10.6h-46.4v-10.6h16
		v-41.6c0,0-0.3-29.5-24.6-29.5s-23.8,26.3-23.8,26.3h-12.2c0,0,0.4-26.3-23.9-26.3c-24.3,0-24.5,29.5-24.5,29.5l0,0v41.6h16.1v10.6
		h-46.5v-10.6H463V100.6L463,100.6z M474.9,89.4c0,0.1,0,9.2,0,9.2c5.4-5.3,12.3-10.5,24.9-10.5c16.3,0,25,8.6,29.9,16.9
		c5-8.3,13.6-16.9,29.9-16.9c12.2,0,19.6,5.2,24.9,10.5v-8.2c0-6.7-0.5-24.3-12.2-41C569,44.8,564,38.9,556,33.2
		c-9.9-7.1-20.5-11.7-26.3-13.1c-5.2,1.6-16.1,6.6-26.4,14.3C479,52.5,474.9,75.3,474.9,89.4L474.9,89.4z M529.7,35.5
		c12.9,0,23.3,10.4,23.3,23.3s-10.4,23.3-23.3,23.3c-12.9,0-23.3-10.4-23.3-23.3C506.4,46,516.9,35.5,529.7,35.5L529.7,35.5z
		 M529.7,46c-7.1,0-12.8,5.7-12.8,12.8s5.7,12.8,12.8,12.8s12.8-5.7,12.8-12.8S536.8,46,529.7,46L529.7,46z M644.6,100.6h-18.1V90
		h18.1c0.2-9.7,1.4-35.1,24.6-57c15-14.2,33-21,40.5-23.1c0.1,0,1.4-0.4,1.5-0.4c0,0,1.5,0.3,2.5,0.5c2.5,0.6,29.3,7.1,47.5,29.8
		c14,17.5,16.8,36.9,16.9,50.2h18.1v10.6h-18.1v69.6h18.1v10.6h-46.4v-10.6h16v-41.6c0,0-0.3-29.5-24.6-29.5s-23.8,26.3-23.8,26.3
		h-12.2c0,0,0.4-26.3-23.9-26.3c-24.3,0-24.5,29.5-24.5,29.5l0,0v41.6h16.1v10.6h-46.5v-10.6h18.1v-69.6H644.6z M656.5,89.4
		c0,0.1,0,9.2,0,9.2c5.4-5.3,12.3-10.5,24.9-10.5c16.3,0,25,8.6,29.9,16.9c5-8.3,13.6-16.9,29.9-16.9c12.2,0,19.6,5.2,24.9,10.5
		v-8.2c0-6.7-0.5-24.3-12.2-41c-3.3-4.6-8.3-10.5-16.3-16.2c-9.9-7.1-20.5-11.7-26.3-13.1c-5.2,1.6-16.1,6.6-26.4,14.3
		C660.6,52.5,656.5,75.3,656.5,89.4L656.5,89.4z M711.3,35.5c12.9,0,23.3,10.4,23.3,23.3s-10.4,23.3-23.3,23.3
		c-12.9,0-23.3-10.4-23.3-23.3C688,46,698.5,35.5,711.3,35.5L711.3,35.5z M711.3,46c-7.1,0-12.8,5.7-12.8,12.8s5.7,12.8,12.8,12.8
		s12.8-5.7,12.8-12.8S718.4,46,711.3,46L711.3,46z M535.8,133v37.2h17.4v10.6h-45.7v-10.6h16V133H535.8L535.8,133z M717.4,133v37.2
		h17.4v10.6h-45.7v-10.6h16V133H717.4L717.4,133z M21.8,152.1c1.1,6,4,10.8,8.9,14.6c4.9,3.7,11.2,5.6,19,5.6c6.6,0,11.8-1.4,15.5-4
		c3.7-2.7,5.5-6.6,5.5-11.8c0-4.7-1.8-8.4-5.5-11c-3.6-2.6-10-4.6-19.1-6c-13-2-22.3-5.3-27.8-9.7c-5.5-4.4-8.3-10.2-8.3-17.4
		c0-7.3,2.5-13.1,7.6-17.5s12.1-6.6,21.1-6.6c6,0,10.9,0.9,14.8,2.7c3.9,1.8,6.9,4.2,9,7.3c2.1,3,3.5,6.4,4.1,10h0.6V90h12.3v28
		H67.3c-1-5.8-3.8-10.5-8.4-14.2c-4.5-3.7-10.5-5.5-17.8-5.5c-5.9,0-10.5,1.3-13.8,3.8s-5,5.8-5,10c0,4.4,2.1,7.8,6.2,10.3
		s10.7,4.4,19.6,5.8c12.6,2,21.6,5.3,26.8,9.8c5.3,4.5,7.9,10.7,7.9,18.4c0,8.1-2.6,14.5-7.8,19.1c-5.2,4.6-12.7,6.9-22.5,6.9
		c-6.1,0-11.2-0.9-15.4-2.7s-7.5-4.2-9.9-7.3c-2.4-3-4-6.4-4.8-10.2h-0.6v18.6H9.6v-28.6h12.2V152.1z M170.6,178.2
		c-3.8-0.6-7-1.6-9.5-3.3c-3.9-2.5-5.8-6-5.8-10.7c0-4.4,1.8-7.8,5.3-10.2s8.5-3.8,15.1-4.3v-0.5c-1.3-0.4-2.5-0.9-3.8-1.5
		c-5.6-2.6-10.1-6.3-13.3-11s-4.9-10.3-4.9-16.6c0-6.4,1.6-11.9,4.8-16.7c3.2-4.7,7.6-8.4,13.2-11.1c5.6-2.6,12.1-4,19.4-4
		c7.4,0,14,1.4,19.7,4.2c5.2,2.5,9.3,6,12.2,10.3l0.6-0.2c-0.2-0.6-0.3-1.2-0.4-1.7c-0.1-0.6-0.1-1.2-0.1-1.9c0-2.4,0.6-4.5,1.7-6.5
		c1.1-1.9,2.8-3.5,4.9-4.6c2.2-1.1,4.8-1.7,7.9-1.7c0.8,0,1.5,0,2.2,0.1s1.3,0.2,1.9,0.3v11.8c-1.1-0.2-2.1-0.3-3-0.4
		s-1.8-0.1-2.7-0.1c-2.4,0-4.3,0.3-5.8,1c-1.4,0.7-2.5,1.5-3.1,2.6s-0.9,2.2-0.9,3.5c0,1.2,0.2,2.5,0.5,3.9s0.7,3,1,4.8
		s0.5,3.9,0.5,6.4c0,6.4-1.6,11.9-4.8,16.6s-7.6,8.4-13.2,11c-5.6,2.6-12,3.9-19.2,3.9h-9.3c-4.9,0-8.6,0.7-11.2,2
		c-2.6,1.3-3.8,3.4-3.8,6.1c0,2.6,1.2,4.4,3.5,5.5c2.4,1.1,5.9,1.7,10.7,1.7h30.5c5.8,0,10.8,1,15,2.9c4.1,1.9,7.2,4.6,9.4,8.1
		c2.1,3.5,3.2,7.7,3.2,12.6c0,5.2-1.5,10-4.4,14.2c-3,4.2-7.8,7.6-14.6,10.1s-15.9,3.7-27.4,3.7c-8,0-15.2-0.8-21.6-2.3
		c-6.4-1.5-11.6-3.9-15.4-7.1c-3.8-3.2-5.7-7.5-5.7-12.9c0-5.3,1.9-9.4,5.8-12.1c3.8-2.8,8.8-4.6,14.9-5.4L170.6,178.2L170.6,178.2z
		 M185.8,178.6c-6.3,0-11.2,0.8-14.8,2.3s-6.1,3.4-7.6,5.8c-1.5,2.4-2.2,4.8-2.2,7.3c0,3.9,1.4,6.9,4.3,9c2.8,2.2,6.7,3.7,11.5,4.6
		c4.8,0.9,10.2,1.4,16.1,1.4c12,0,20.7-1.6,26.3-4.8c5.5-3.2,8.3-7.7,8.3-13.4c0-8.1-5.2-12.1-15.7-12.1h-26.2V178.6z M178.1,138.9
		c3.8,1.8,8.2,2.6,13.1,2.6c4.8,0,9.1-0.9,12.9-2.6c3.8-1.8,6.8-4.3,8.9-7.5c2.2-3.2,3.3-7,3.3-11.3s-1.1-8.1-3.3-11.4
		s-5.2-5.8-8.9-7.6c-3.8-1.8-8.1-2.7-12.9-2.7c-4.9,0-9.3,0.9-13.1,2.7c-3.8,1.8-6.8,4.3-9,7.6c-2.2,3.3-3.3,7.1-3.3,11.4
		s1.1,8.1,3.3,11.3C171.2,134.6,174.3,137.1,178.1,138.9L178.1,138.9z M320.6,125.3c-0.7-5.1-2.4-9.6-5-13.5s-6-6.9-10.2-9.1
		s-9.1-3.3-14.6-3.3c-6.6,0-12.4,1.5-17.3,4.6c-5,3.1-8.8,7.4-11.6,12.8c-2.8,5.4-4.1,11.7-4.1,18.9c0,6.9,1.4,13,4.2,18.4
		c2.8,5.3,6.8,9.5,11.8,12.5c5.1,3,11.1,4.5,18,4.5c7.2,0,13.3-1.6,18.5-4.7c5.2-3.2,8.9-7.4,11.3-12.7l11.3,5
		c-3.2,7.3-8.4,13.1-15.5,17.4c-7.1,4.3-15.7,6.4-25.7,6.4c-9.4,0-17.6-2-24.6-6s-12.4-9.5-16.2-16.5s-5.7-15.1-5.7-24.2
		c0-6.9,1.1-13.3,3.2-19c2.1-5.8,5.1-10.8,9-15c3.9-4.2,8.6-7.5,14-9.8s11.4-3.5,18.1-3.5c6.4,0,11.8,1,16.1,3.1
		c4.3,2.1,7.6,4.9,10,8.5s3.9,7.7,4.6,12.4h0.5V90H333v35.3H320.6L320.6,125.3L320.6,125.3z M125.5,90v80.2H143v10.6H94.9v-10.6
		h18.4v-69.6H94.9V90H125.5L125.5,90z M111,68V51.7h15.7V68H111L111,68z M418,176.3c-7.1,4-15.4,6-24.8,6s-17.7-2-24.8-6
		c-7.1-4-12.6-9.5-16.6-16.5s-6-15-6-24.2s2-17.4,6-24.5s9.5-12.7,16.6-16.7s15.4-6,24.8-6s17.7,2,24.8,6c7.1,4,12.6,9.6,16.6,16.7
		s6,15.3,6,24.5c0,9.1-2,17.2-6,24.2S425.1,172.3,418,176.3L418,176.3z M375.2,166.6c5.2,3,11.2,4.4,18,4.4s12.8-1.5,18-4.4
		c5.2-3,9.3-7.1,12.2-12.4c2.9-5.3,4.4-11.5,4.4-18.5c0-7.1-1.5-13.3-4.4-18.7c-2.9-5.4-7-9.6-12.2-12.7c-5.2-3-11.2-4.6-18-4.6
		s-12.8,1.5-18,4.6c-5.2,3-9.3,7.3-12.2,12.7c-2.9,5.4-4.4,11.6-4.4,18.7c0,7,1.5,13.2,4.4,18.5C365.9,159.5,370,163.6,375.2,166.6
		L375.2,166.6z"/>
	<path class="st1" d="M821.4,181.1h-10.1c0-5,0.8-9.9,2.2-14.8c1.5-4.8,4-9.3,7.6-13.3c3.6-4.1,8.5-7.4,14.7-10l19.2-8.1
		c6.5-2.8,11-5.7,13.6-8.8c2.6-3,4-6.6,4-10.5c0-4.9-1.9-8.9-5.8-12.1c-3.9-3.2-9.6-4.8-17.2-4.8c-8.4,0-14.9,2.1-19.4,6.2
		s-7,9.7-7.5,16.7l-10.8-1c0.8-9.9,4.4-17.8,11-23.6c6.5-5.8,15.5-8.7,26.9-8.7c7.1,0,13.3,1.2,18.4,3.5c5.1,2.3,9,5.5,11.8,9.6
		c2.7,4.1,4.1,8.9,4.1,14.3c0,3.8-0.8,7.4-2.3,10.7c-1.6,3.3-4.1,6.5-7.8,9.5c-3.6,3-8.6,5.8-14.9,8.5l-19.7,8.4
		c-6.3,2.6-10.9,6.5-13.9,11.6c-1.2,2.1-2.2,4.2-2.9,6.4l0.9,0.6c2-1.9,4.3-3.3,7-4c2.6-0.8,5.4-1.2,8.2-1.2s5.2,0.3,7.1,0.8
		c1.9,0.5,3.7,1.1,5.3,1.8s3.3,1.3,5.2,1.8c1.8,0.5,3.9,0.8,6.4,0.8c4.7,0,8.2-1.2,10.8-3.6c2.5-2.4,3.8-6.5,3.8-12.3h11
		c0,8.8-2.2,15.4-6.6,19.8c-4.4,4.4-10.6,6.6-18.6,6.6c-3.1,0-5.8-0.3-8.2-0.8s-4.5-1.1-6.6-1.8s-4-1.3-5.9-1.8s-4.1-0.8-6.4-0.8
		c-2.1,0-4.5,0.3-7.2,0.9C826.2,178.3,823.7,179.5,821.4,181.1L821.4,181.1z M933.6,182.6c-8.5,0-16-2-22.3-5.9
		c-6.4-3.9-11.3-9.4-14.8-16.4c-3.5-7.1-5.2-15.3-5.2-24.8s1.7-17.8,5.2-24.8c3.5-7.1,8.4-12.5,14.8-16.4c6.4-3.9,13.8-5.9,22.3-5.9
		s15.9,2,22.3,5.9c6.4,3.9,11.3,9.4,14.8,16.4c3.5,7.1,5.2,15.3,5.2,24.8s-1.7,17.7-5.2,24.8s-8.4,12.5-14.8,16.4
		S942.1,182.6,933.6,182.6L933.6,182.6z M933.6,172.3c6.2,0,11.6-1.5,16.2-4.6c4.6-3,8.2-7.3,10.8-12.8s3.9-12,3.9-19.3
		c0-7.5-1.3-14-3.9-19.5c-2.6-5.5-6.2-9.8-10.8-12.8s-10-4.5-16.2-4.5s-11.6,1.5-16.3,4.5s-8.3,7.3-10.9,12.8
		c-2.6,5.5-3.9,12-3.9,19.5c0,7.4,1.3,13.8,3.9,19.3c2.6,5.5,6.2,9.8,10.9,12.8S927.4,172.3,933.6,172.3L933.6,172.3z M992,181.1
		h-10c0-5,0.7-9.9,2.2-14.8c1.5-4.8,4-9.3,7.6-13.3c3.6-4.1,8.5-7.4,14.7-10l19.2-8.1c6.5-2.8,11-5.7,13.6-8.8c2.6-3,4-6.6,4-10.5
		c0-4.9-1.9-8.9-5.8-12.1s-9.6-4.8-17.2-4.8c-8.4,0-14.9,2.1-19.4,6.2c-4.5,4.2-7,9.7-7.5,16.7l-10.8-1c0.8-9.9,4.4-17.8,11-23.6
		c6.5-5.8,15.5-8.7,26.9-8.7c7.1,0,13.3,1.2,18.4,3.5s9,5.5,11.8,9.6c2.7,4.1,4.1,8.9,4.1,14.3c0,3.8-0.8,7.4-2.3,10.7
		c-1.6,3.3-4.1,6.5-7.8,9.5c-3.6,3-8.6,5.8-14.9,8.5l-19.7,8.4c-6.3,2.6-10.9,6.5-13.9,11.6c-1.2,2.1-2.2,4.2-2.9,6.4l0.9,0.6
		c2-1.9,4.3-3.3,7-4c2.6-0.8,5.4-1.2,8.2-1.2s5.2,0.3,7.1,0.8c1.9,0.5,3.7,1.1,5.3,1.8s3.3,1.3,5.2,1.8c1.8,0.5,3.9,0.8,6.4,0.8
		c4.7,0,8.2-1.2,10.8-3.6c2.5-2.4,3.8-6.5,3.8-12.3h11c0,8.8-2.2,15.4-6.6,19.8c-4.4,4.4-10.6,6.6-18.6,6.6c-3.1,0-5.8-0.3-8.2-0.8
		c-2.4-0.5-4.5-1.1-6.6-1.8c-2-0.7-4-1.3-5.9-1.8s-4.1-0.8-6.4-0.8c-2.1,0-4.5,0.3-7.2,0.9C996.9,178.3,994.4,179.5,992,181.1
		L992,181.1z M1077.8,156.3l-10.4-2l9.2-64.4h60.2v10.2h-50.5l-6.5,43.8h0.5c1-3.8,2.7-7.1,5-9.7c2.3-2.6,5.2-4.6,8.8-6
		c3.6-1.4,7.8-2.1,12.6-2.1c7.1,0,13.4,1.6,19,4.7c5.6,3.2,9.9,7.5,13.1,13.1s4.8,12.1,4.8,19.3c0,7.4-1.7,13.9-5.1,19.5
		s-8.1,9.9-14,13c-6,3.1-12.8,4.7-20.6,4.7c-8.4,0-15.8-1.8-22-5.3s-10.8-8.4-13.8-14.6l10.6-4.7c2.4,4.6,5.7,8.1,10.1,10.6
		s9.4,3.7,15.1,3.7c5.5,0,10.3-1.1,14.6-3.4c4.2-2.2,7.5-5.4,9.9-9.4s3.6-8.7,3.6-14c0-5.4-1.2-10.1-3.5-14.1s-5.5-7.2-9.6-9.4
		s-8.7-3.4-14-3.4c-6.6,0-12.4,1.8-17.4,5.3S1079,150.1,1077.8,156.3L1077.8,156.3z"/>
	<path class="st0" d="M448.8,232.9c0-3.3,0.6-6.4,1.7-9.1c1.1-2.8,2.7-5.1,4.7-7.1s4.4-3.5,7.1-4.6s5.6-1.6,8.8-1.6
		c4.5,0,8.6,1.1,12.1,3.2c3.5,2.2,6.2,5.3,7.9,9.3l-7.1,2.1c-0.9-1.8-2.1-3.2-3.4-4.3c-1.4-1.1-2.8-1.9-4.4-2.4s-3.2-0.8-4.9-0.8
		c-2.7,0-5.1,0.6-7.2,1.9c-2.1,1.3-3.7,3.1-4.9,5.4c-1.2,2.3-1.7,5-1.7,8s0.6,5.7,1.7,8c1.2,2.3,2.8,4.1,4.9,5.4
		c2.1,1.3,4.5,2,7.2,2c1.7,0,3.4-0.3,5-0.8c1.7-0.5,3.2-1.4,4.6-2.7s2.7-2.9,3.7-5l7,2c-1.8,4.6-4.5,8-8.1,10.3s-7.7,3.4-12.4,3.4
		c-3.2,0-6.1-0.5-8.8-1.6c-2.7-1.1-5.1-2.6-7.1-4.7c-2-2-3.6-4.4-4.7-7.2C449.3,239.2,448.8,236.2,448.8,232.9L448.8,232.9z
		 M526.1,255.5c-3.1,0-6-0.5-8.8-1.6c-2.7-1.1-5.1-2.6-7.2-4.6c-2-2-3.6-4.4-4.8-7.1c-1.2-2.8-1.7-5.8-1.7-9.1s0.6-6.4,1.7-9.1
		c1.2-2.7,2.8-5.1,4.8-7.1s4.4-3.6,7.2-4.7c2.7-1.1,5.7-1.6,8.8-1.6c3.2,0,6.1,0.5,8.8,1.6s5.1,2.7,7.2,4.7c2.1,2,3.7,4.4,4.8,7.1
		c1.2,2.7,1.7,5.8,1.7,9.1s-0.6,6.4-1.7,9.1c-1.2,2.8-2.8,5.1-4.8,7.1c-2.1,2-4.4,3.5-7.2,4.6C532.2,254.9,529.2,255.5,526.1,255.5
		L526.1,255.5z M526.1,248.2c2.7,0,5-0.6,7.1-1.9c2.1-1.3,3.7-3.1,4.9-5.3c1.2-2.3,1.8-4.9,1.8-8s-0.6-5.7-1.8-8s-2.8-4.1-4.9-5.3
		c-2.1-1.3-4.4-1.9-7.1-1.9c-2.7,0-5.1,0.6-7.2,1.9c-2.1,1.3-3.7,3.1-4.9,5.3c-1.2,2.3-1.8,4.9-1.8,8c0,3,0.6,5.7,1.8,8
		s2.8,4.1,4.9,5.4C521,247.6,523.4,248.2,526.1,248.2L526.1,248.2z M562.1,210.9h8.5V255h-8.5V210.9L562.1,210.9z M594.8,255h-8.5
		v-44.2h9.7l14.1,33.1l14.1-33.1h9.7V255h-8.5v-28.5l-12,28.5h-6.7l-11.9-28.5V255L594.8,255z M649.5,255v-44.2H670
		c3.1,0,5.7,0.5,7.8,1.5s3.7,2.4,4.8,4.2c1.1,1.7,1.6,3.7,1.6,5.9c0,1.9-0.4,3.6-1.1,4.9c-0.7,1.3-1.7,2.4-2.9,3.2s-2.7,1.3-4.3,1.6
		v0.5c1.9,0.3,3.6,0.8,5,1.6s2.5,2,3.2,3.4c0.8,1.5,1.1,3.3,1.1,5.4c0,2.3-0.6,4.4-1.7,6.2c-1.1,1.8-2.8,3.2-5,4.2s-4.8,1.5-7.8,1.5
		h-21.2V255z M658,247.9h11.6c2.2,0,4-0.5,5.2-1.5s1.9-2.4,1.9-4.3c0-2-0.7-3.5-2-4.5s-3.1-1.5-5.3-1.5H658V247.9L658,247.9z
		 M675.5,223.6c0-1.9-0.6-3.3-1.8-4.2s-2.8-1.4-5-1.4H658v11.2h10.7c2.1,0,3.8-0.5,5-1.4C674.9,226.8,675.5,225.4,675.5,223.6
		L675.5,223.6z M715,238.2h-7.1V255h-8.5v-44.2h18.2c3.6,0,6.5,0.6,8.9,1.9c2.3,1.2,4.1,2.9,5.2,5c1.2,2.1,1.7,4.3,1.7,6.8
		c0,1.6-0.3,3.3-0.9,4.9c-0.6,1.6-1.5,3.1-2.8,4.4c-1.3,1.3-2.9,2.4-4.9,3.2c-0.4,0.2-0.8,0.3-1.2,0.4l10.7,17.6h-9.5L715,238.2
		L715,238.2z M724.7,224.5c0-2-0.6-3.6-1.8-4.7c-1.2-1.2-3.1-1.8-5.6-1.8h-9.4v13.1h9.4c1.7,0,3.1-0.3,4.2-0.8
		c1.1-0.5,1.9-1.3,2.4-2.3C724.4,227,724.7,225.8,724.7,224.5L724.7,224.5z M756.3,244.9l-3.6,10.2H744l15.8-44.2h14.1l15.8,44.2
		H781l-3.5-10.2H756.3L756.3,244.9z M774.9,237.7L768,218h-2.3l-6.9,19.8h16.1V237.7z"/>
</g>
</svg>
